<svg xmlns="http://www.w3.org/2000/svg" width="263.838" height="264.443" viewBox="0 0 263.838 264.443"><g data-name="Group 20" fill="#fff"><path data-name="Rectangle 63" d="m35.554 264.443-2.338-15.295 228.174-34.873 2.338 15.295z"/><path data-name="Rectangle 64" d="m30.867 233.838-2.338-15.295 228.174-34.873 2.338 15.295z"/><path data-name="Rectangle 65" d="m26.18 203.232-2.338-15.295 228.174-34.873 2.338 15.295z"/><path data-name="Rectangle 66" d="m21.494 172.626-2.338-15.295 228.174-34.873 2.338 15.295z"/><path data-name="Rectangle 67" d="m16.404 142.078-2.338-15.295L242.24 91.91l2.338 15.295z"/><path data-name="Rectangle 68" d="M11.717 111.473 9.379 96.178l228.174-34.873 2.338 15.295z"/><path data-name="Rectangle 69" d="M7.03 80.867 4.692 65.572l228.174-34.873 2.338 15.295z"/><path data-name="Rectangle 70" d="M2.343 50.261.005 34.966 228.18.093l2.338 15.295z"/></g></svg>