<svg data-name="Component 51 – 1" xmlns="http://www.w3.org/2000/svg" width="265.723" height="268.654" viewBox="0 0 265.723 268.654"><g data-name="Group 18" fill="#fff"><path data-name="Rectangle 54" d="m35.808 266.333-2.354-15.405 229.803-35.122 2.355 15.405z"/><path data-name="Rectangle 55" d="m31.088 235.509-2.354-15.405 229.803-35.122 2.355 15.405z"/><path data-name="Rectangle 56" d="m26.368 204.684-2.354-15.405 229.803-35.122 2.355 15.405z"/><path data-name="Rectangle 57" d="m21.647 173.86-2.354-15.405 229.803-35.122 2.355 15.405z"/><path data-name="Rectangle 58" d="m16.521 143.094-2.354-15.405L243.97 92.567l2.355 15.405z"/><path data-name="Rectangle 59" d="M11.801 112.269 9.447 96.864 239.25 61.742l2.355 15.405z"/><path data-name="Rectangle 60" d="M7.08 81.445 4.726 66.04l229.803-35.122 2.355 15.405z"/><path data-name="Rectangle 61" d="M2.36 50.621.006 35.216 229.809.094l2.355 15.405z"/></g><path data-name="Path 92" d="M78.057 135.416a61.969 61.969 0 0 0-51.875 70.636l122.51-18.761a61.968 61.968 0 0 0-70.635-51.875Z" fill="#ff7fc7"/><path data-name="Path 93" d="m157.967 249.239-71.045-51.63-51.63 71.046Z" fill="#ff7fc7"/></svg>