<?xml version="1.0" encoding="UTF-8"?> <svg xmlns="http://www.w3.org/2000/svg" width="15.585" height="12.988" viewBox="0 0 15.585 12.988"><path d="M15.156.24a6.287 6.287 0 0 1-2.032.794A3.154 3.154 0 0 0 10.79-.001a3.239 3.239 0 0 0-3.2 3.279 3.343 3.343 0 0 0 .082.747A9 9 0 0 1 1.081.598a3.337 3.337 0 0 0-.433 1.65A3.3 3.3 0 0 0 2.07 4.977a3.138 3.138 0 0 1-1.449-.409v.04a3.26 3.26 0 0 0 2.566 3.215 3.049 3.049 0 0 1-.843.115 3.125 3.125 0 0 1-.6-.058 3.21 3.21 0 0 0 2.987 2.276 6.314 6.314 0 0 1-3.971 1.4 6.406 6.406 0 0 1-.763-.045 8.9 8.9 0 0 0 4.9 1.472 9.159 9.159 0 0 0 9.1-9.328c0-.143 0-.285-.008-.425a6.56 6.56 0 0 0 1.595-1.7 6.263 6.263 0 0 1-1.836.516A3.273 3.273 0 0 0 15.156.24z" fill="#fff"></path></svg> 