<?xml version="1.0" encoding="UTF-8"?> <svg xmlns="http://www.w3.org/2000/svg" width="15.205" height="15.205" viewBox="0 0 15.205 15.205"><path d="M13.397 0H1.807A1.805 1.805 0 0 0 0 1.8v11.6a1.8 1.8 0 0 0 1.807 1.8h11.59a1.805 1.805 0 0 0 1.807-1.8V1.8A1.805 1.805 0 0 0 13.397 0zm-2.469 2.376a.475.475 0 0 1 .475-.475h1.425a.475.475 0 0 1 .475.475v1.425a.476.476 0 0 1-.475.475h-1.425a.476.476 0 0 1-.475-.475zM7.62 4.703A2.917 2.917 0 1 1 4.696 7.62 2.921 2.921 0 0 1 7.62 4.703zm6.159 8.6a.475.475 0 0 1-.475.475h-11.4a.475.475 0 0 1-.475-.475V6.176h1.9a2.9 2.9 0 0 0-.331 1.443 4.626 4.626 0 0 0 9.251 0 2.433 2.433 0 0 0-.367-1.443h1.9z" fill="#fff"></path></svg> 