<?xml version="1.0" encoding="UTF-8"?> <svg xmlns="http://www.w3.org/2000/svg" width="22.912" height="22.911" viewBox="0 0 22.912 22.911"><path d="M20.188 0H2.724A2.72 2.72 0 0 0 .001 2.717v17.477a2.72 2.72 0 0 0 2.723 2.717h17.465a2.72 2.72 0 0 0 2.724-2.717V2.717A2.72 2.72 0 0 0 20.188 0zm-3.721 3.58a.716.716 0 0 1 .716-.716h2.148a.716.716 0 0 1 .716.716v2.145a.717.717 0 0 1-.716.716h-2.148a.717.717 0 0 1-.716-.716zm-4.985 3.507a4.4 4.4 0 1 1-4.406 4.4 4.4 4.4 0 0 1 4.406-4.4zm9.281 12.961a.716.716 0 0 1-.716.716H2.864a.716.716 0 0 1-.716-.716V9.308h2.864a4.372 4.372 0 0 0-.5 2.174 6.97 6.97 0 0 0 13.94 0 3.666 3.666 0 0 0-.553-2.174h2.864z"></path></svg> 