<svg xmlns="http://www.w3.org/2000/svg" width="131.051" height="62" viewBox="0 0 131.051 62"><g data-name="logo canalbox"><path data-name="Path 1" d="M78.356 62c-.227-1.255-.458-2.508-.68-3.763q-1.079-6.107-2.153-12.214l-2.09-11.844-2.1-11.875-2.15-12.214-.139-.788c.461-.085.914-.173 1.368-.253q10.38-1.827 20.761-3.652 9.807-1.729 19.614-3.467 5.265-.929 10.531-1.856a1.5 1.5 0 0 0 .217-.074h.205q.308 1.714.614 3.429 1.011 5.719 2.018 11.438l2.088 11.84 2.089 11.841 2.089 11.841c.124.7.272 1.4.41 2.1v.2c-.089.021-.177.045-.267.061q-3.97.7-7.94 1.394-6.9 1.217-13.791 2.438-7.469 1.318-14.937 2.628-6.745 1.187-13.489 2.381c-.691.122-1.377.271-2.066.405Zm19.551-39.779a20.073 20.073 0 0 0-2.16.3 7.877 7.877 0 0 0-6.209 6.1 7.883 7.883 0 0 0 2.744 8.475 8.85 8.85 0 0 0 6.123 1.915 8.307 8.307 0 0 0 8.251-8.268 8 8 0 0 0-3.374-6.826 9.278 9.278 0 0 0-5.375-1.696Zm-13.044 7.892c.1-.072.154-.121.216-.163a3.019 3.019 0 0 0 1.358-2.162 7.548 7.548 0 0 0 .049-1.567 3.365 3.365 0 0 0-3-3.3 8.516 8.516 0 0 0-1.427-.126c-1.893-.014-3.787-.006-5.68 0-.11 0-.221.009-.33.015v15.687c.093.006.16.016.227.016 2.122 0 4.243.019 6.364-.014a8.453 8.453 0 0 0 1.993-.254 4.108 4.108 0 0 0 3.2-2.956 5 5 0 0 0 .039-2.405 3.149 3.149 0 0 0-2.32-2.569c-.216-.07-.432-.129-.689-.203Zm28.822-3.267c-.088-.142-.155-.244-.216-.351-.665-1.156-1.331-2.31-1.989-3.47a.4.4 0 0 0-.4-.243c-1.505.011-3.01 0-4.516.007a1.8 1.8 0 0 0-.242.036c.117.175.211.316.307.457q2.245 3.272 4.494 6.537a.422.422 0 0 1 0 .591q-2.845 3.851-5.665 7.72c-.076.1-.145.213-.255.376h.413c1.392 0 2.783-.006 4.174.007a.561.561 0 0 0 .527-.281c1.026-1.508 2.063-3.008 3.1-4.51.067-.1.138-.19.225-.309.095.141.166.243.234.347.986 1.493 1.975 2.986 2.953 4.484a.512.512 0 0 0 .5.267c1.4-.011 2.8 0 4.208 0 .109 0 .218-.012.392-.021-.1-.146-.168-.246-.237-.344q-2.736-3.866-5.478-7.728a.425.425 0 0 1 0-.591q2.35-3.343 4.68-6.7c.066-.095.125-.194.213-.334-1.654 0-3.238 0-4.822.01a.447.447 0 0 0-.3.209c-.511.836-1.008 1.681-1.509 2.522-.256.422-.513.847-.792 1.312Z"/><path data-name="Path 2" d="M0 30.796c.113-.7.177-1.4.345-2.082a8.036 8.036 0 0 1 7.647-6.207 10.538 10.538 0 0 1 4.994.9c1.035.475 1.034.486.835 1.594-.137.76-.284 1.521-.43 2.281-.025.129-.074.254-.128.436-.2-.123-.366-.225-.529-.32a6.192 6.192 0 0 0-5.267-.775 4.1 4.1 0 0 0-2.953 3.58 4.042 4.042 0 0 0 1.332 3.922 4.407 4.407 0 0 0 3.629.936 17.86 17.86 0 0 0 2.295-.631c.1-.029.206-.07.38-.129-.092.568-.172 1.07-.257 1.572-.11.65-.225 1.3-.34 1.951-.041.229-.094.434-.363.523a8.653 8.653 0 0 1-8.429-1.131 6.951 6.951 0 0 1-2.62-4.756c-.059-.393-.1-.789-.143-1.184Z"/><path data-name="Path 3" d="M40.838 31.88c.05-.283.108-.565.149-.851q.527-3.636 1.049-7.273c.024-.165.026-.336.286-.335 1.231.01 2.463 0 3.694.008a1.061 1.061 0 0 1 .2.05c-.087.637-.17 1.266-.259 1.895l-1.278 8.965c-.183 1.286-.37 2.571-.546 3.857-.03.218-.133.277-.34.276a203.005 203.005 0 0 0-3.49 0 .418.418 0 0 1-.413-.274q-2.176-3.872-4.359-7.742a9.1 9.1 0 0 0-.791-1.236c-.06.381-.123.76-.178 1.142q-.553 3.894-1.1 7.785c-.029.214-.109.292-.324.291a238.998 238.998 0 0 0-3.387 0c-.283 0-.357-.114-.32-.377q.5-3.5.982-7.006.5-3.571.995-7.143c.068-.494.068-.5.563-.5 1.187 0 2.372.009 3.558-.007a.533.533 0 0 1 .537.315q2.221 3.927 4.46 7.843c.065.114.14.221.21.331Z"/><path data-name="Path 4" d="M12.553 38.376c.06-.139.1-.252.158-.361l7.113-14.316a.464.464 0 0 1 .492-.3c1.438.012 2.874.014 4.311 0 .3 0 .41.107.47.391q1.5 7.116 3.021 14.232c.093.434.09.436-.35.438-1.049 0-2.1-.008-3.146 0a.333.333 0 0 1-.391-.312c-.152-.689-.33-1.373-.488-2.061a.3.3 0 0 0-.342-.279q-2.377.015-4.754 0a.516.516 0 0 0-.522.352c-.31.672-.619 1.346-.95 2.006a.5.5 0 0 1-.334.262c-1.38.016-2.759.008-4.139.006a.718.718 0 0 1-.149-.058Zm7.394-5.854h3.219c-.356-1.6-.707-3.17-1.058-4.74h-.073Z"/><path data-name="Path 5" d="m45.708 38.452.5-1.335q2.559-6.661 5.113-13.324a.507.507 0 0 1 .565-.4c1.185.021 2.372.012 3.558 0a.366.366 0 0 1 .4.275q2.741 7.285 5.494 14.567c.019.051.028.106.054.2-.127.011-.233.026-.339.026-1.151 0-2.3-.008-3.454.008a.435.435 0 0 1-.489-.352c-.227-.655-.492-1.3-.726-1.951a.406.406 0 0 0-.449-.316q-2.376.013-4.754 0a.414.414 0 0 0-.456.31c-.246.661-.521 1.312-.764 1.974a.426.426 0 0 1-.467.336c-1.151-.014-2.3 0-3.454-.008-.091.011-.19-.001-.332-.01Zm9.483-5.584-1.561-4.651-.082.008-1.589 4.644Z"/><path data-name="Path 6" d="M67.066 22.87v11.4c0 .44 0 .441.456.441 1.4 0 2.806.007 4.208 0 .289 0 .375.095.372.374a131.675 131.675 0 0 0 0 3.079c0 .259-.069.362-.349.362q-4.414-.012-8.828 0c-.278 0-.348-.105-.348-.363q.008-7.493 0-14.987c0-.205.018-.352.286-.35 1.312.008 2.623 0 3.935.006a1.819 1.819 0 0 1 .268.038Z"/><path data-name="Path 7" d="M97.957 35.041a4.363 4.363 0 0 1-4.4-4.44 4.408 4.408 0 0 1 4.4-4.354 4.371 4.371 0 0 1 4.422 4.389 4.4 4.4 0 0 1-4.422 4.405Z"/><path data-name="Path 8" d="M80.124 31.957c.878.068 1.708.092 2.522.213a1.328 1.328 0 0 1 1.19 1.26 1.333 1.333 0 0 1-.947 1.58 12.013 12.013 0 0 1-1.972.307 6.616 6.616 0 0 1-.793.006v-3.366Z"/><path data-name="Path 9" d="M80.141 29.017v-3.148a13.638 13.638 0 0 1 1.694.215 1.241 1.241 0 0 1 .922 1.387 1.228 1.228 0 0 1-.939 1.34 13.875 13.875 0 0 1-1.677.206Z"/></g></svg>