<?xml version="1.0" encoding="UTF-8"?> <svg xmlns="http://www.w3.org/2000/svg" width="23.485" height="19.571" viewBox="0 0 23.485 19.571"><path d="M22.838.362a9.474 9.474 0 0 1-3.062 1.2A4.753 4.753 0 0 0 16.259.003a4.881 4.881 0 0 0-4.816 4.941 5.033 5.033 0 0 0 .124 1.125A13.564 13.564 0 0 1 1.635.905a5.028 5.028 0 0 0-.652 2.487 4.972 4.972 0 0 0 2.143 4.112 4.729 4.729 0 0 1-2.183-.616v.06a4.912 4.912 0 0 0 3.867 4.845 4.593 4.593 0 0 1-1.27.174 4.71 4.71 0 0 1-.907-.087 4.838 4.838 0 0 0 4.5 3.429 9.515 9.515 0 0 1-5.984 2.116A9.645 9.645 0 0 1 0 17.357a13.411 13.411 0 0 0 7.386 2.218c8.864 0 13.71-7.527 13.71-14.057 0-.215 0-.43-.013-.64a9.886 9.886 0 0 0 2.4-2.557 9.437 9.437 0 0 1-2.766.778A4.932 4.932 0 0 0 22.838.362z"></path></svg> 